<svg xmlns="http://www.w3.org/2000/svg" viewBox="0 0 730.93 577.7"><defs><style>.cls-1{fill:#fff;}.cls-2,.cls-3{fill:#db700f;}.cls-3{fill-rule:evenodd;}</style></defs><g id="Camada_2" data-name="Camada 2"><g id="Layer_1" data-name="Layer 1"><path class="cls-1" d="M222.56,497.46V427.17a34,34,0,0,0-67.94,0v70.29a34,34,0,0,0,67.94,0Zm-25.77,0a8.2,8.2,0,1,1-16.4,0V427.17a8.2,8.2,0,0,1,16.4,0Z"/><path class="cls-1" d="M313.93,393.21a34,34,0,0,0-34,34v70.29a34,34,0,1,0,67.94,0V482.94H322.13v14.52a8.2,8.2,0,1,1-16.4,0V458.8H347.9V427.17A34,34,0,0,0,313.93,393.21Zm8.2,39.82h-16.4v-5.86a8.2,8.2,0,0,1,16.4,0Z"/><path class="cls-1" d="M454.49,393.21a34,34,0,0,0-34,34v18.75h25.77V427.17a8.2,8.2,0,0,1,16.4,0V449h-8.2a34,34,0,0,0-34,34v14.52a34,34,0,0,0,34,34h34V427.17A34,34,0,0,0,454.49,393.21Zm0,112.45a8.21,8.21,0,0,1-8.2-8.2V482.94a8.21,8.21,0,0,1,8.2-8.2h8.2v30.92Z"/><path class="cls-1" d="M697,393.21a34,34,0,0,0-34,34v70.29a34,34,0,1,0,67.94,0V427.17A34,34,0,0,0,697,393.21Zm8.2,104.25a8.2,8.2,0,1,1-16.4,0V427.17a8.2,8.2,0,0,1,16.4,0Z"/><path class="cls-1" d="M529.46,393.21a34,34,0,0,0-34,34v70.29a34,34,0,0,0,26.35,33.1V540.7l0,7.51,7.51.1c.57,0,13.16.26,14.58,7.51-3.18,1.66-12.35,3.12-20.37,3.13v15.23c10.74,0,35.73-1.65,35.73-17,0-14.93-12.08-21.26-22.26-23.31v-3.33a34,34,0,0,0,26.36-33.1V482.79H537.66v14.67a8.2,8.2,0,1,1-16.4,0V427.17a8.2,8.2,0,0,1,16.4,0V433h25.77v-5.79A34,34,0,0,0,529.46,393.21Z"/><path class="cls-1" d="M605.6,393.21a34,34,0,0,0-34,34v18.75H597.4V427.17a8.2,8.2,0,0,1,16.4,0V449h-8.2a34,34,0,0,0-34,34v14.52a34,34,0,0,0,34,34h34V427.17A34,34,0,0,0,605.6,393.21Zm0,112.45a8.21,8.21,0,0,1-8.2-8.2V482.94a8.21,8.21,0,0,1,8.2-8.2h8.2v30.92Z"/><path class="cls-1" d="M242.47,543.73a8.2,8.2,0,1,1-16.4,0H200.3a34,34,0,0,0,67.93.58h0V394.38H242.47Z"/><path class="cls-1" d="M133.67,410.37c-7.2-6.84-16.67-11-28.25-12.32v-6H79.65V532.6h25.77V424.14a21.36,21.36,0,0,1,10.28,4.71,15.87,15.87,0,0,1,5,10.28v-.24h25.77A41.63,41.63,0,0,0,133.67,410.37Z"/><path class="cls-1" d="M395.92,358.06H370.15v35.15h-14V419h14v82.55a25.9,25.9,0,0,0,6.18,18.71c6.36,7.42,16.46,11.19,30,11.19V505.66c-7.55,0-10.22-1.77-10.48-2.21h0l0-.3V419h15.23V393.21H395.92Z"/><path class="cls-1" d="M39.23,394.33l-2.51-1.12H0V569H25.77V531.43H34a34,34,0,0,0,34-34V427.17C67.94,408.62,46,397.35,39.23,394.33Zm2.94,103.13a8.21,8.21,0,0,1-8.2,8.2h-8.2V419H31c5,2.64,10.1,6.57,11.17,8.71Z"/><path class="cls-1" d="M600.61,373.14A37.06,37.06,0,0,0,618,377.93a23.72,23.72,0,0,0,17.3-7.05l-10.77-10.77c-2.8,2.81-6.56,3-9.89,2.25-11.85-8.52-27-2.91-33.82,1.68l8.48,12.65C589.42,376.64,595.06,373,600.61,373.14Z"/><path class="cls-2" d="M241.89,311.44a6.44,6.44,0,0,1-4.55-1.89l-22.89-22.88a6.45,6.45,0,0,1-.4-8.67l27.4-33.08a140.89,140.89,0,0,1-9.25-21L190,220a6.44,6.44,0,0,1-5.84-6.42V149a6.44,6.44,0,0,1,5.84-6.41l39.89-3.75A140.6,140.6,0,0,1,239.2,115L214.05,84.58a6.44,6.44,0,0,1,.4-8.66l45.64-45.64a6.45,6.45,0,0,1,8.67-.41L297.88,54a141.2,141.2,0,0,1,25.39-10.8l3.51-37.35A6.44,6.44,0,0,1,333.19,0h64.55a6.44,6.44,0,0,1,6.41,5.84l3.51,37.35A140.83,140.83,0,0,1,433.05,54l29.13-24.13a6.44,6.44,0,0,1,8.66.41l45.64,45.64a6.44,6.44,0,0,1,.4,8.66L491.73,115a139.77,139.77,0,0,1,9.3,23.91l39.89,3.75a6.44,6.44,0,0,1,5.84,6.41v64.54a6.44,6.44,0,0,1-5.84,6.42l-42.18,4a140.48,140.48,0,0,1-9.26,21L516.88,278a6.45,6.45,0,0,1-.4,8.67l-22.82,22.82a6.46,6.46,0,0,1-10-1.17l-49.88-56a.08.08,0,0,1,0,0l-.13-.14a6.45,6.45,0,0,1,.53-9.1,6.14,6.14,0,0,1,.84-.63,94.85,94.85,0,1,0-137.78,1.24,6.44,6.44,0,0,1,0,8.89l-.31.32-50.19,56.46a6.44,6.44,0,0,1-4.63,2.16ZM227.71,281.7l13.91,13.91,42.22-47.5A107.75,107.75,0,1,1,447.18,248l42.26,47.48,13.78-13.78-26.48-32a6.44,6.44,0,0,1-.6-7.37A127.94,127.94,0,0,0,487.8,216a6.45,6.45,0,0,1,6.27-4.52l39.8-3.74V154.89L496,151.33H496a6.4,6.4,0,0,1-6.22-4.85,127.55,127.55,0,0,0-11.42-29.41,6.45,6.45,0,0,1,1.6-8.06l23.3-28.13L465.88,43.54l-27,22.39a6.44,6.44,0,0,1-8.27,1.48,127.39,127.39,0,0,0-30.76-13.1,6.44,6.44,0,0,1-4.69-6.86l-3.25-34.56H339.06l-3.32,35.34a6.43,6.43,0,0,1-4.7,6.1,127.26,127.26,0,0,0-30.6,13,6.44,6.44,0,0,1-7.84-1L265.05,43.54,227.71,80.88l23.57,28.45a6.39,6.39,0,0,1,1.33,7.75,126.84,126.84,0,0,0-11.44,29.51,6.44,6.44,0,0,1-7.11,4.82l-37,3.48V207.7l39.82,3.74a6.45,6.45,0,0,1,6.25,4.52h0a127.82,127.82,0,0,0,11.7,26.47,6.45,6.45,0,0,1-1.33,8.12Z"/><path class="cls-3" d="M366.51,107.51C319,107.18,293,145.79,293,169.67c0,30.93,23.5,74.38,38.55,102l69.21.1C414.44,248.19,438,193.59,438,167.86,438,144.31,414,107.83,366.51,107.51ZM318.12,223.77q1,2.17,2.08,4.33Q319.15,225.94,318.12,223.77Zm2.45,5.09c.7,1.42,1.41,2.83,2.11,4.23C322,231.69,321.27,230.28,320.57,228.86Zm2.5,5c1.48,2.91,3,5.78,4.47,8.59C326.05,239.63,324.55,236.76,323.07,233.85Zm71,28.12-31.68.1,5.86,0a25.25,25.25,0,0,0,2.52-5,33.9,33.9,0,0,0,1.93-11.81V200.91a1.22,1.22,0,0,0-.25-.79,1.66,1.66,0,0,0-.8-.53,7.46,7.46,0,0,0-1.46-.35,16.42,16.42,0,0,0-2.28-.13,17,17,0,0,0-2.35.13,8.45,8.45,0,0,0-1.49.35,1.45,1.45,0,0,0-.79.53,1.34,1.34,0,0,0-.23.79v44.33a27.29,27.29,0,0,1-1.2,8.52,16.72,16.72,0,0,1-3.47,6.11,14.54,14.54,0,0,1-2.6,2.22l-17.57.05c-3.24-5.94-6.87-12.48-10.53-19.36V200.91a1.34,1.34,0,0,0-.23-.79,1.43,1.43,0,0,0-.77-.53,7,7,0,0,0-1.49-.35,21,21,0,0,0-4.67,0,8.18,8.18,0,0,0-1.47.35,1.42,1.42,0,0,0-.79.53,1.34,1.34,0,0,0-.23.79v22.75c-8.44-18-15.24-36.86-15.24-53.41,0-19.78,21.89-51.15,63.68-52s62.24,30.7,62.24,50.2C428.75,193.13,407.33,239.22,394.11,262Z"/><rect class="cls-2" x="332.3" y="280.62" width="66.34" height="9.45" rx="4.72"/><path class="cls-3" d="M393.91,297.39H337a4.73,4.73,0,0,0,0,9.45h56.89a4.73,4.73,0,0,0,0-9.45Z"/><path class="cls-3" d="M392.53,132.86c-6.54-3.15-19.9-6.78-25.24-2.34-3.32,2.76-.58,5.55,2.24,5.67,8.63.35,13.77,1.26,19.2,3.84,3.11,1.48,6.8,5.78,12.77,12.26,2.77,3,7.36,2.63,7.1-1.36C408.25,145.46,398.17,135.58,392.53,132.86Z"/></g></g></svg>